<svg width="106" height="35" viewBox="0 0 106 35" fill="none" xmlns="http://www.w3.org/2000/svg">
<path fill-rule="evenodd" clip-rule="evenodd" d="M15.8724 15.6271C14.6893 15.6128 13.7194 14.6191 13.7054 13.4063C13.6918 12.1942 14.6402 11.2229 15.8234 11.2365C17.0069 11.25 17.9771 12.2444 17.9907 13.4569C18.0047 14.6698 17.0563 15.641 15.8724 15.6271ZM20.6732 20.1514C20.6732 20.1514 22.5549 6.29185 16.3257 1.10169L15.9887 0.153667C15.9169 -0.0477679 15.6403 -0.0524075 15.5626 0.147094L15.1958 1.08584C9.0771 6.12869 11.2271 20.0405 11.2271 20.0405C6.49688 23.8488 7.64754 22.4217 10.347 29.1383C10.8614 30.4207 11.7634 30.1184 12.1713 29.1928C12.5789 28.2683 13.4794 26.2262 13.4794 26.2262H13.907L15.5596 31.6355C15.7079 32.1215 16.3793 32.1215 16.5279 31.6355L18.1802 26.2262H18.5726C18.5726 26.2262 19.5501 28.3503 19.9788 29.2852C20.4075 30.2205 21.3159 30.5437 21.8024 29.2732C24.3516 22.6185 25.4898 24.0719 20.6732 20.1514Z" fill="#F64060"/>
<path d="M30.61 24.045C30.51 24.045 30.43 24.035 30.37 24.015H30.07H29.8H29.695L29.02 23.85L28.96 23.73C28.95 23.73 28.945 23.675 28.945 23.565C28.945 23.425 28.94 23.31 28.93 23.22L28.915 22.53C28.905 22.38 28.9 22.155 28.9 21.855L28.87 20.7C28.87 20.45 28.88 20.105 28.9 19.665L28.915 19.155C28.935 18.835 28.945 18.31 28.945 17.58V17.475V17.28C28.925 17.25 28.915 17.195 28.915 17.115L28.9 17.01C28.9 16.76 28.915 16.5 28.945 16.23C28.965 15.89 28.975 15.58 28.975 15.3L28.96 14.88C28.95 14.77 28.945 14.64 28.945 14.49C28.945 14.48 28.935 14.465 28.915 14.445C28.905 14.425 28.9 14.405 28.9 14.385C28.9 14.285 28.94 14.2 29.02 14.13C29.1 14.06 29.2 14.01 29.32 13.98C29.48 13.93 29.685 13.905 29.935 13.905H32.47H33.64C33.65 13.905 33.665 13.915 33.685 13.935C33.705 13.955 33.725 13.97 33.745 13.98C33.825 14.05 33.925 14.185 34.045 14.385C34.075 14.445 34.105 14.515 34.135 14.595C34.175 14.665 34.225 14.78 34.285 14.94C34.355 15.1 34.45 15.345 34.57 15.675L34.75 16.14C34.83 16.29 34.92 16.505 35.02 16.785C35.05 16.865 35.08 16.945 35.11 17.025C35.15 17.105 35.185 17.185 35.215 17.265C35.235 17.335 35.255 17.39 35.275 17.43C35.305 17.46 35.32 17.48 35.32 17.49C35.39 17.65 35.465 17.73 35.545 17.73C35.645 17.73 35.725 17.65 35.785 17.49C35.795 17.48 35.805 17.46 35.815 17.43C35.825 17.39 35.85 17.33 35.89 17.25L36.115 16.755L36.715 15.48L36.97 14.94C37 14.86 37.02 14.795 37.03 14.745C37.05 14.685 37.07 14.645 37.09 14.625C37.13 14.535 37.225 14.38 37.375 14.16C37.425 14.08 37.47 14.02 37.51 13.98C37.54 13.97 37.56 13.955 37.57 13.935C37.58 13.915 37.595 13.905 37.615 13.905H38.785H41.32H41.545H41.695H41.89H42.22C42.24 13.905 42.265 13.98 42.295 14.13L42.34 15.6C42.36 16.02 42.37 16.68 42.37 17.58V18.45C42.37 18.79 42.355 19.17 42.325 19.59C42.295 20.01 42.275 20.28 42.265 20.4L42.235 20.7V21.225C42.245 21.365 42.25 21.575 42.25 21.855C42.25 22.155 42.255 22.38 42.265 22.53C42.265 22.82 42.275 23.02 42.295 23.13V23.565V23.73L42.25 23.85L41.575 24.015H41.47H41.2H40.9C40.83 24.035 40.745 24.045 40.645 24.045C40.465 24.045 40.215 24.035 39.895 24.015L39.52 24C39.45 23.99 39.37 23.98 39.28 23.97C39.19 23.96 39.08 23.955 38.95 23.955L38.365 23.91C38.345 23.91 38.33 23.915 38.32 23.925H38.2C38.15 23.925 38.12 23.87 38.11 23.76C38.05 23.56 38.02 23.22 38.02 22.74C38.02 22.42 38.015 22.17 38.005 21.99L37.99 21.18C37.98 21 37.975 20.74 37.975 20.4C37.975 20.32 37.94 20.28 37.87 20.28C37.83 20.28 37.79 20.33 37.75 20.43L37.585 20.835L37.45 21.21C37.43 21.27 37.41 21.33 37.39 21.39C37.37 21.45 37.345 21.505 37.315 21.555L37.24 21.735C37.15 21.935 37.035 22.16 36.895 22.41C36.745 22.68 36.56 22.895 36.34 23.055C36.22 23.125 36.115 23.16 36.025 23.16H35.8C35.68 23.16 35.58 23.15 35.5 23.13H35.17H34.87C34.47 22.49 34.095 21.79 33.745 21.03L33.52 20.475C33.46 20.345 33.42 20.28 33.4 20.28C33.33 20.28 33.295 20.32 33.295 20.4V21.105C33.295 21.805 33.285 22.32 33.265 22.65C33.245 23.17 33.21 23.53 33.16 23.73C33.15 23.86 33.12 23.925 33.07 23.925H32.965L32.89 23.91C32.55 23.93 32.28 23.95 32.08 23.97C31.96 23.98 31.75 23.995 31.45 24.015C31.15 24.035 30.87 24.045 30.61 24.045ZM44.6597 23.94C44.6397 23.94 44.6247 23.92 44.6147 23.88C44.5447 23.79 44.4947 23.68 44.4647 23.55C44.4347 23.5 44.4097 23.435 44.3897 23.355C44.2997 23.175 44.2347 22.925 44.1947 22.605C44.1547 22.145 44.1347 21.78 44.1347 21.51C44.1247 21.39 44.1197 21.225 44.1197 21.015V20.655C44.1197 20.355 44.1147 20.12 44.1047 19.95C44.0947 19.77 44.0897 19.415 44.0897 18.885C44.0897 17.465 44.1197 16.37 44.1797 15.6C44.1797 15.48 44.3497 15.39 44.6897 15.33H45.1397H45.5147C46.0847 15.33 46.5097 15.34 46.7897 15.36C47.2097 15.39 47.6347 15.405 48.0647 15.405C48.1647 15.405 48.2397 15.4 48.2897 15.39H48.5147L48.5897 15.45C48.9197 15.38 49.2597 15.335 49.6097 15.315C49.9597 15.295 50.3847 15.285 50.8847 15.285C50.9047 15.285 50.9297 15.3 50.9597 15.33H51.4397C51.5197 15.33 51.5797 15.375 51.6197 15.465C51.6697 15.555 51.7097 15.685 51.7397 15.855C51.7797 15.985 51.8097 16.145 51.8297 16.335C51.8697 16.585 51.9047 16.75 51.9347 16.83C51.9347 17.11 51.8847 17.25 51.7847 17.25C51.7747 17.25 51.7597 17.235 51.7397 17.205L51.6797 17.19C51.6297 17.18 51.5747 17.185 51.5147 17.205C51.4547 17.235 51.3897 17.25 51.3197 17.25C51.2597 17.25 51.2097 17.235 51.1697 17.205C51.1497 17.195 51.1047 17.19 51.0347 17.19C50.9447 17.19 50.8397 17.205 50.7197 17.235C50.6797 17.245 50.5997 17.26 50.4797 17.28C50.3697 17.3 50.2397 17.31 50.0897 17.31C49.6597 17.31 49.3497 17.32 49.1597 17.34C49.0497 17.35 48.9447 17.38 48.8447 17.43V17.4C48.8047 17.4 48.7697 17.45 48.7397 17.55C48.6697 17.72 48.6247 17.955 48.6047 18.255C48.5947 18.345 48.5897 18.445 48.5897 18.555C48.5897 18.665 48.6047 18.74 48.6347 18.78C48.6747 18.82 48.7347 18.84 48.8147 18.84C48.8747 18.84 48.9247 18.82 48.9647 18.78C48.9847 18.78 49.0097 18.785 49.0397 18.795C49.0697 18.805 49.0947 18.82 49.1147 18.84H50.3897C50.3997 18.82 50.4147 18.805 50.4347 18.795C50.4547 18.785 50.4747 18.78 50.4947 18.78C50.5947 18.78 50.6697 18.795 50.7197 18.825C50.7797 18.855 50.8997 18.885 51.0797 18.915C51.1797 18.915 51.2497 18.945 51.2897 19.005C51.3397 19.075 51.3647 19.14 51.3647 19.2L51.6797 20.19C51.7097 20.35 51.5597 20.455 51.2297 20.505C51.0397 20.545 50.6747 20.565 50.1347 20.565H49.4897H49.0397C48.8997 20.565 48.7947 20.575 48.7247 20.595C48.6547 20.605 48.6097 20.64 48.5897 20.7C48.5497 20.75 48.5297 20.83 48.5297 20.94V21C48.5297 21.05 48.5347 21.085 48.5447 21.105L48.5297 21.435C48.5197 21.505 48.5147 21.61 48.5147 21.75V21.9V22.035V22.125C48.9647 22.125 49.4247 22.11 49.8947 22.08C50.3547 22.05 50.8097 22.035 51.2597 22.035C51.2897 22.035 51.3147 22.06 51.3347 22.11C51.3547 22.15 51.3647 22.2 51.3647 22.26C51.3847 22.32 51.3947 22.385 51.3947 22.455C51.4147 22.605 51.4447 22.745 51.4847 22.875L51.5897 23.31V23.61V23.655V23.775L51.4697 23.88H51.3647H51.3197C51.2097 23.88 51.1397 23.875 51.1097 23.865C51.0797 23.845 51.0447 23.835 51.0047 23.835C50.9847 23.845 50.9547 23.86 50.9147 23.88C50.8747 23.9 50.8397 23.92 50.8097 23.94V23.865L50.6297 23.88H50.4047C50.3647 23.88 50.3347 23.87 50.3147 23.85L50.1947 23.835C49.8247 23.835 49.5647 23.87 49.4147 23.94H44.6597ZM54.1519 23.94C54.1319 23.94 54.1169 23.92 54.1069 23.88C54.0369 23.79 53.9869 23.68 53.9569 23.55C53.9269 23.5 53.9019 23.435 53.8819 23.355C53.7919 23.175 53.7269 22.925 53.6869 22.605C53.6469 22.145 53.6269 21.78 53.6269 21.51C53.6169 21.39 53.6119 21.225 53.6119 21.015V20.655C53.6119 20.355 53.6069 20.12 53.5969 19.95C53.5869 19.77 53.5819 19.415 53.5819 18.885C53.5819 17.465 53.6119 16.37 53.6719 15.6C53.6719 15.48 53.8419 15.39 54.1819 15.33H54.6319H55.0069C55.5769 15.33 56.0019 15.34 56.2819 15.36C56.7019 15.39 57.1269 15.405 57.5569 15.405C57.6569 15.405 57.7319 15.4 57.7819 15.39H58.0069L58.0819 15.45C58.4119 15.38 58.7519 15.335 59.1019 15.315C59.4519 15.295 59.8769 15.285 60.3769 15.285C60.3969 15.285 60.4219 15.3 60.4519 15.33H60.9319C61.0119 15.33 61.0719 15.375 61.1119 15.465C61.1619 15.555 61.2019 15.685 61.2319 15.855C61.2719 15.985 61.3019 16.145 61.3219 16.335C61.3619 16.585 61.3969 16.75 61.4269 16.83C61.4269 17.11 61.3769 17.25 61.2769 17.25C61.2669 17.25 61.2519 17.235 61.2319 17.205L61.1719 17.19C61.1219 17.18 61.0669 17.185 61.0069 17.205C60.9469 17.235 60.8819 17.25 60.8119 17.25C60.7519 17.25 60.7019 17.235 60.6619 17.205C60.6419 17.195 60.5969 17.19 60.5269 17.19C60.4369 17.19 60.3319 17.205 60.2119 17.235C60.1719 17.245 60.0919 17.26 59.9719 17.28C59.8619 17.3 59.7319 17.31 59.5819 17.31C59.1519 17.31 58.8419 17.32 58.6519 17.34C58.5419 17.35 58.4369 17.38 58.3369 17.43V17.4C58.2969 17.4 58.2619 17.45 58.2319 17.55C58.1619 17.72 58.1169 17.955 58.0969 18.255C58.0869 18.345 58.0819 18.445 58.0819 18.555C58.0819 18.665 58.0969 18.74 58.1269 18.78C58.1669 18.82 58.2269 18.84 58.3069 18.84C58.3669 18.84 58.4169 18.82 58.4569 18.78C58.4769 18.78 58.5019 18.785 58.5319 18.795C58.5619 18.805 58.5869 18.82 58.6069 18.84H59.8819C59.8919 18.82 59.9069 18.805 59.9269 18.795C59.9469 18.785 59.9669 18.78 59.9869 18.78C60.0869 18.78 60.1619 18.795 60.2119 18.825C60.2719 18.855 60.3919 18.885 60.5719 18.915C60.6719 18.915 60.7419 18.945 60.7819 19.005C60.8319 19.075 60.8569 19.14 60.8569 19.2L61.1719 20.19C61.2019 20.35 61.0519 20.455 60.7219 20.505C60.5319 20.545 60.1669 20.565 59.6269 20.565H58.9819H58.5319C58.3919 20.565 58.2869 20.575 58.2169 20.595C58.1469 20.605 58.1019 20.64 58.0819 20.7C58.0419 20.75 58.0219 20.83 58.0219 20.94V21C58.0219 21.05 58.0269 21.085 58.0369 21.105L58.0219 21.435C58.0119 21.505 58.0069 21.61 58.0069 21.75V21.9V22.035V22.125C58.4569 22.125 58.9169 22.11 59.3869 22.08C59.8469 22.05 60.3019 22.035 60.7519 22.035C60.7819 22.035 60.8069 22.06 60.8269 22.11C60.8469 22.15 60.8569 22.2 60.8569 22.26C60.8769 22.32 60.8869 22.385 60.8869 22.455C60.9069 22.605 60.9369 22.745 60.9769 22.875L61.0819 23.31V23.61V23.655V23.775L60.9619 23.88H60.8569H60.8119C60.7019 23.88 60.6319 23.875 60.6019 23.865C60.5719 23.845 60.5369 23.835 60.4969 23.835C60.4769 23.845 60.4469 23.86 60.4069 23.88C60.3669 23.9 60.3319 23.92 60.3019 23.94V23.865L60.1219 23.88H59.8969C59.8569 23.88 59.8269 23.87 59.8069 23.85L59.6869 23.835C59.3169 23.835 59.0569 23.87 58.9069 23.94H54.1519ZM67.4391 24.045H66.7491H65.9691H64.9791C64.8891 23.905 64.8291 23.65 64.7991 23.28C64.7591 22.95 64.7391 22.47 64.7391 21.84L64.7541 20.19C64.7641 19.79 64.7691 19.155 64.7691 18.285L64.7241 18.24H63.2391C63.0191 18.24 62.8741 17.99 62.8041 17.49C62.7641 17.22 62.7441 16.825 62.7441 16.305V16.11C62.7641 16.04 62.7741 15.93 62.7741 15.78V15.48L62.7891 15.36L62.8491 15.3L63.1191 15.315H63.4191C63.8591 15.315 64.1941 15.31 64.4241 15.3H65.3991H65.6691H66.1791H66.8241H67.4691C67.5991 15.31 67.7841 15.315 68.0241 15.315H68.3991C68.4391 15.295 68.5041 15.285 68.5941 15.285C68.6641 15.265 68.7291 15.255 68.7891 15.255C68.9791 15.255 69.1241 15.265 69.2241 15.285C69.4241 15.305 69.5741 15.315 69.6741 15.315L70.0641 15.3H70.6491C70.9491 15.3 71.1541 15.305 71.2641 15.315L71.4741 15.33C71.4841 15.34 71.4991 15.355 71.5191 15.375C71.5391 15.385 71.5491 15.395 71.5491 15.405V17.955C71.5491 18.015 71.5141 18.08 71.4441 18.15C71.3841 18.22 71.3241 18.265 71.2641 18.285C70.9341 18.215 70.5041 18.18 69.9741 18.18H69.4041C69.2541 18.18 69.1541 18.37 69.1041 18.75C69.0841 18.86 69.0741 19.02 69.0741 19.23V19.68C69.0741 19.88 69.0791 20.03 69.0891 20.13V20.55C69.0891 20.96 69.0691 21.34 69.0291 21.69C69.0091 21.95 68.9991 22.14 68.9991 22.26C68.9791 22.38 68.9691 22.545 68.9691 22.755C68.9691 23.055 68.9591 23.305 68.9391 23.505C68.9291 23.815 68.8141 23.98 68.5941 24C68.3541 24.03 68.2141 24.045 68.1741 24.045H67.4391ZM75.8889 24.225C75.4889 24.245 75.1489 24.235 74.8689 24.195C74.6389 24.145 74.4289 24.075 74.2389 23.985C74.0489 23.895 73.8739 23.755 73.7139 23.565C73.3939 23.165 73.1789 22.64 73.0689 21.99C72.9889 21.46 72.9589 20.88 72.9789 20.25V19.59C72.9789 19.5 72.9839 19.43 72.9939 19.38V19.08V18.81V18.66L73.0389 18.555C73.0389 18.545 73.0389 18.53 73.0389 18.51C73.0489 18.49 73.0539 18.455 73.0539 18.405C73.0839 18.045 73.0989 17.755 73.0989 17.535L73.1289 16.98C73.1389 16.73 73.1439 16.44 73.1439 16.11C73.1439 15.98 73.1389 15.89 73.1289 15.84C73.1089 15.72 73.0989 15.625 73.0989 15.555C73.0989 15.405 73.2539 15.33 73.5639 15.33H73.7739C73.8939 15.33 73.9739 15.32 74.0139 15.3L75.8439 15.33C75.8439 15.33 75.8489 15.34 75.8589 15.36C75.8789 15.37 75.8939 15.375 75.9039 15.375L76.0239 15.33C76.5439 15.33 76.8789 15.38 77.0289 15.48C77.1289 15.55 77.1989 15.655 77.2389 15.795C77.2889 15.935 77.3139 16.125 77.3139 16.365C77.3139 16.525 77.3239 16.745 77.3439 17.025C77.3639 17.165 77.3739 17.385 77.3739 17.685V17.835C77.3539 18.125 77.3339 18.6 77.3139 19.26L77.2989 19.98V20.625C77.2789 20.745 77.2689 20.905 77.2689 21.105V21.33V21.555C77.2589 21.695 77.2789 21.89 77.3289 22.14C77.3789 22.22 77.4239 22.26 77.4639 22.26C77.5239 22.26 77.7489 22.185 78.1389 22.035L78.4989 21.855C78.5989 21.815 78.6489 21.775 78.6489 21.735V16.8C78.6189 16.59 78.6039 16.425 78.6039 16.305C78.5939 16.255 78.5889 16.18 78.5889 16.08V15.855V15.705C78.5889 15.585 78.6139 15.5 78.6639 15.45C78.6839 15.42 78.7339 15.405 78.8139 15.405C78.8339 15.405 78.8539 15.415 78.8739 15.435C78.8939 15.445 78.9039 15.46 78.9039 15.48V15.51C79.0039 15.47 79.2189 15.435 79.5489 15.405C79.8189 15.375 80.1189 15.36 80.4489 15.36H80.8239H81.0639H81.3489L82.9239 15.405C82.9439 15.405 82.9589 15.41 82.9689 15.42C82.9889 15.43 82.9989 15.44 82.9989 15.45C83.0089 15.45 83.0139 15.455 83.0139 15.465C83.0139 15.475 83.0139 15.48 83.0139 15.48V15.555C83.0039 15.555 82.9989 15.57 82.9989 15.6L83.0739 15.585C83.0839 15.565 83.0989 15.555 83.1189 15.555C83.1489 15.555 83.1639 15.58 83.1639 15.63C83.1639 17.38 83.1539 18.835 83.1339 19.995C83.1239 21.145 83.0839 22.31 83.0139 23.49C83.0139 23.54 82.9739 23.615 82.8939 23.715C82.8539 23.765 82.8189 23.805 82.7889 23.835C82.7789 23.855 82.7639 23.87 82.7439 23.88C82.7239 23.89 82.7089 23.9 82.6989 23.91C82.6889 23.9 82.6539 23.89 82.5939 23.88C82.5339 23.86 82.4839 23.85 82.4439 23.85L82.3989 23.88C82.3789 23.9 82.3589 23.91 82.3389 23.91C81.9389 23.98 81.3089 24.015 80.4489 24.015H79.7889C79.5389 24.015 79.3189 23.995 79.1289 23.955C79.0589 23.905 78.9839 23.78 78.9039 23.58C78.8939 23.51 78.8739 23.45 78.8439 23.4C78.8239 23.35 78.7989 23.325 78.7689 23.325C78.6889 23.325 78.5639 23.38 78.3939 23.49C78.3739 23.51 78.3439 23.535 78.3039 23.565C78.2739 23.585 78.2439 23.61 78.2139 23.64C78.1339 23.7 78.0789 23.75 78.0489 23.79C77.7789 23.94 77.4589 24.05 77.0889 24.12C76.8389 24.18 76.6089 24.21 76.3989 24.21C76.1689 24.21 75.9989 24.215 75.8889 24.225ZM85.291 24.045C85.141 24.045 85.041 23.955 84.991 23.775C84.961 23.675 84.946 23.495 84.946 23.235C84.946 22.465 84.936 21.795 84.916 21.225C84.886 20.355 84.871 19.45 84.871 18.51V15.63C84.871 15.55 84.906 15.475 84.976 15.405C85.056 15.335 85.136 15.3 85.216 15.3C85.936 15.3 86.436 15.305 86.716 15.315L87.811 15.33C88.111 15.33 88.611 15.32 89.311 15.3C89.671 15.29 90.266 15.285 91.096 15.285C91.706 15.285 92.231 15.36 92.671 15.51C93.231 15.69 93.706 15.98 94.096 16.38C94.496 16.86 94.696 17.495 94.696 18.285C94.696 19.585 94.361 20.545 93.691 21.165C93.081 21.715 92.196 21.99 91.036 21.99H89.251C89.251 22.29 89.241 22.47 89.221 22.53C89.221 22.6 89.216 22.65 89.206 22.68C89.196 22.71 89.191 22.73 89.191 22.74C89.191 22.77 89.201 22.8 89.221 22.83V23.04L89.251 23.235V23.34C89.251 23.61 89.191 23.8 89.071 23.91C89.021 23.95 88.946 23.975 88.846 23.985C88.756 23.995 88.656 24 88.546 24H87.736L87.316 24.015C86.896 24.035 86.556 24.045 86.296 24.045H85.291ZM89.971 20.415C90.131 20.415 90.261 20.245 90.361 19.905C90.431 19.675 90.486 19.32 90.526 18.84C90.536 18.6 90.541 18.32 90.541 18V17.865C90.541 17.645 90.516 17.435 90.466 17.235C90.416 16.935 90.331 16.735 90.211 16.635C90.141 16.565 90.061 16.53 89.971 16.53C89.891 16.53 89.821 16.58 89.761 16.68C89.651 16.89 89.571 17.24 89.521 17.73C89.471 18.01 89.446 18.25 89.446 18.45C89.396 18.91 89.371 19.555 89.371 20.385C89.371 20.385 89.376 20.39 89.386 20.4C89.406 20.4 89.426 20.4 89.446 20.4C89.456 20.41 89.511 20.415 89.611 20.415H89.971ZM101.164 24.36C100.504 24.36 99.9541 24.33 99.5141 24.27C98.9441 24.19 98.4291 24.045 97.9691 23.835C97.9091 23.805 97.8191 23.76 97.6991 23.7C97.5891 23.63 97.4941 23.565 97.4141 23.505C97.0841 23.225 96.8141 22.91 96.6041 22.56C96.4341 22.38 96.2791 22.13 96.1391 21.81C95.8691 21.11 95.7341 20.275 95.7341 19.305C95.7341 18.165 95.9691 17.165 96.4391 16.305C96.8491 15.485 97.3941 14.845 98.0741 14.385C98.7641 13.915 99.5441 13.65 100.414 13.59L100.594 13.575H100.789C101.569 13.575 102.409 13.735 103.309 14.055C103.389 14.095 103.564 14.175 103.834 14.295C104.104 14.415 104.354 14.55 104.584 14.7L104.314 16.65L103.429 16.425C103.109 16.345 102.809 16.305 102.529 16.305C101.969 16.305 101.549 16.515 101.269 16.935C100.969 17.375 100.819 18.09 100.819 19.08C100.819 19.4 100.834 19.625 100.864 19.755C100.904 20.385 101.044 20.85 101.284 21.15C101.514 21.41 101.789 21.54 102.109 21.54C102.409 21.54 102.744 21.445 103.114 21.255C103.434 21.105 103.784 20.9 104.164 20.64L104.314 23.1C103.924 23.46 103.424 23.765 102.814 24.015C102.234 24.245 101.684 24.36 101.164 24.36Z" fill="#F64060"/>
</svg>
